#!OML:ASF H:\BabyWalks\Project 1\Capture day 1\Session 1\baby.ASF
:FULLY-SPECIFIED
:DEGREES
333
root -7.29021 17.7888 -1.13163 300.382 90.8698 289.662
lowerback 21.2498 -2.02136 -0.630715
upperback 5.58446 -2.17607 2.60832
thorax -5.64671 -0.889786 3.70981
lowerneck -2.6108 1.61178 8.03038
upperneck -0.658254 2.00808 -10.7895
head 0.432052 0.958576 -4.52404
rclavicle 3.02153e-014 7.15625e-015
rhumerus -60.1207 10.4433 -82.555
rradius 38.4854
rwrist 0.409911
rhand 14.5935 -19.2597
rfingers 7.12502
rthumb 39.4689 -44.6438
lclavicle 3.02153e-014 7.15625e-015
lhumerus -39.8923 -5.94871 78.6965
lradius 68.1949
lwrist 3.86238
lhand -22.4555 5.21642
lfingers 7.12502
lthumb 3.96895 35.1592
rfemur -32.2278 3.09911 21.3235
rtibia 32.6044
rfoot -11.479 -7.07805
rtoes 5.08529
lfemur -10.1503 8.25721 -14.3627
ltibia 51.4075
lfoot 1.72326 -16.4083
ltoes -20.7732
334
root -7.09855 17.7475 -1.10895 344.076 90.6472 333.53
lowerback 21.3427 -1.93654 0.178299
upperback 5.65866 -1.85808 2.89033
thorax -5.65442 -0.734794 3.4736
lowerneck -2.311 1.40242 8.14843
upperneck -1.03498 1.71936 -10.9577
head 0.248001 0.827164 -4.60358
rclavicle 2.46493e-014 -2.8625e-014
rhumerus -59.6266 10.5373 -82.7428
rradius 38.1588
rwrist 0.68778
rhand 13.7653 -18.8634
rfingers 7.12502
rthumb 38.6882 -44.472
lclavicle 2.46493e-014 -2.8625e-014
lhumerus -40.4907 -5.65817 79.1247
lradius 67.0851
lwrist 3.3853
lhand -22.3065 6.0081
lfingers 7.12502
lthumb 4.11285 35.9481
rfemur -31.8782 3.42194 22.0302
rtibia 33.7437
rfoot -12.4202 -7.29741
rtoes 6.10914
lfemur -11.5736 8.62716 -13.3443
ltibia 54.3015
lfoot 0.982259 -16.1561
ltoes -19.8277
335
root -6.90737 17.7067 -1.08769 393.442 90.8298 382.96
lowerback 21.3317 -1.82679 0.988133
upperback 5.71829 -1.51166 3.17187
thorax -5.61931 -0.566972 3.2251
lowerneck -2.1042 1.21732 8.28088
upperneck -1.31451 1.46262 -11.0738
head 0.10953 0.70793 -4.66717
rclavicle 1.47101e-014 -3.18055e-015
rhumerus -58.9453 10.5933 -82.8285
rradius 37.7276
rwrist 1.23708
rhand 12.8169 -18.459
rfingers 7.12502
rthumb 37.7929 -44.3143
lclavicle 1.47101e-014 -3.18055e-015
lhumerus -41.1069 -5.35645 79.5178
lradius 65.8437
lwrist 2.8628
lhand -22.3126 6.83293
lfingers 7.12502
lthumb 4.10686 36.7731
rfemur -31.5721 3.7773 22.8275
rtibia 34.7676
rfoot -13.6857 -7.47726
rtoes 6.27722
lfemur -13.1427 9.07254 -12.3156
ltibia 57.0654
lfoot -0.189774 -15.7556
ltoes -18.9368
336
root -6.71634 17.6686 -1.06791 418.402 91.2557 407.871
lowerback 21.2249 -1.6866 1.71408
upperback 5.75984 -1.15262 3.43198
thorax -5.54646 -0.393459 2.99575
lowerneck -2.01247 1.06587 8.4211
upperneck -1.46177 1.25211 -11.1443
head 0.0321901 0.606672 -4.71575
rclavicle -1.59028e-015 -4.77083e-014
rhumerus -58.0954 10.5868 -82.78
rradius 37.2285
rwrist 2.10246
rhand 11.694 -18.0419
rfingers 7.12502
rthumb 36.7312 -44.1754
lclavicle -1.59028e-015 -4.77083e-014
lhumerus -41.725 -5.04663 79.8737
lradius 64.4581
lwrist 2.29629
lhand -22.4174 7.70453
lfingers 7.12502
lthumb 4.00569 37.6466
rfemur -31.3196 4.13517 23.6174
rtibia 35.6657
rfoot -14.867 -7.26145
rtoes 6.72496
lfemur -14.8369 9.5681 -11.3895
ltibia 59.6129
lfoot -1.6647 -15.2501
ltoes -18.1353
337
root -6.52514 17.6352 -1.04968 431.231 91.6724 420.567
lowerback 21.0563 -1.51701 2.28905
upperback 5.78689 -0.798301 3.65196
thorax -5.44921 -0.222157 2.81013
lowerneck -2.02611 0.950114 8.55492
upperneck -1.47686 1.09146 -11.1764
head 0.0149491 0.525549 -4.74973
rclavicle -5.96354e-015 -2.06736e-014
rhumerus -57.1006 10.4842 -82.5648
rradius 36.733
rwrist 3.21918
rhand 10.3932 -17.6956
rfingers 7.12502
rthumb 35.4992 -44.1336
lclavicle -5.96354e-015 -2.06736e-014
lhumerus -42.3292 -4.7295 80.194
lradius 62.9259
lwrist 1.6806
lhand -22.5436 8.60712
lfingers 7.12502
lthumb 3.88384 38.5515
rfemur -31.0984 4.48186 24.3102
rtibia 36.4235
rfoot -15.8177 -7.50357
rtoes 6.48392
lfemur -16.6026 10.0674 -10.6612
ltibia 61.8587
lfoot -3.32117 -14.6762
ltoes -17.4605
338
root -6.33371 17.6075 -1.03309 439.666 91.9766 428.833
lowerback 20.8732 -1.32002 2.67031
upperback 5.8051 -0.458543 3.8187
thorax -5.3475 -0.0576002 2.68256
lowerneck -2.09978 0.864047 8.6713
upperneck -1.39617 0.973139 -11.1798
head 0.0392258 0.462713 -4.77092
rclavicle -1.82882e-014 9.54166e-015
rhumerus -56.0099 10.2598 -82.1841
rradius 36.3002
rwrist 4.53773
rhand 8.83149 -17.4255
rfingers 7.12502
rthumb 34.0172 -44.2054
lclavicle -1.82882e-014 9.54166e-015
lhumerus -42.909 -4.40552 80.4852
lradius 61.2487
lwrist 1.0072
lhand -22.6087 9.52711
lfingers 7.12502
lthumb 3.82101 39.4726
rfemur -30.8654 4.80869 24.8397
rtibia 37.0618
rfoot -16.6215 -7.77035
rtoes 5.9193
lfemur -18.38 10.5286 -10.1942
ltibia 63.7579
lfoot -5.04515 -14.0794
ltoes -16.8771
339
root -6.14291 17.5853 -1.0181 446.313 92.1467 435.316
lowerback 20.7275 -1.10421 2.86933
upperback 5.81559 -0.137795 3.92555
thorax -5.26986 0.0979033 2.60138
lowerneck -2.18393 0.795043 8.7736
upperneck -1.26545 0.880229 -11.1679
head 0.082069 0.411757 -4.78468
rclavicle -1.74931e-014 -2.06736e-014
rhumerus -54.8769 9.89764 -81.6692
rradius 35.9886
rwrist 5.93095
rhand 6.94511 -17.2793
rfingers 7.12502
rthumb 32.2234 -44.4402
lclavicle -1.74931e-014 -2.06736e-014
lhumerus -43.455 -4.08553 80.7471
lradius 59.4382
lwrist 0.277247
lhand -22.525 10.377
lfingers 7.12502
lthumb 3.90181 40.321
rfemur -30.5767 5.10862 25.1869
rtibia 37.5938
rfoot -17.3564 -7.94402
rtoes 5.37904
lfemur -20.1264 10.9058 -9.99549
ltibia 65.2943
lfoot -6.7508 -13.4467
ltoes -16.3626
